# xmcd
#
# Track frame offsets: 
#        150
#        14926
#        28274
#        43307
#        64794
#        76146
#        91665
#        108789
#        128332
#        143836
#
# Disc length: 2132 seconds
#
# Revision: 0
# Processed by: cddbd v1.5.2PL0 Copyright (c) Steve Scherf et al.
# Submitted via: ExactAudioCopy v1.3
#
DISCID=7d08520a
DTITLE=Kellie Pickler - Kellie Pickler
DYEAR=2008
DGENRE=Country/Rock
TTITLE0=Don't You Know You're Beautiful
TTITLE1=I'm Your Woman
TTITLE2=Rocks Instead Of Rice
TTITLE3=Didn't You Know How Much I Loved You
TTITLE4=Lucky Girl
TTITLE5=One Last Time
TTITLE6=Best Days Of Your Life
TTITLE7=Somebody To Love Me
TTITLE8=Makin' Me Fall In Love Again
TTITLE9=Going Out In Style
EXTD=
EXTT0=
EXTT1=
EXTT2=
EXTT3=
EXTT4=
EXTT5=
EXTT6=
EXTT7=
EXTT8=
EXTT9=
PLAYORDER=
